STARTFONT 2.1
COMMENT
COMMENT $Id: cudevnag12.bdf,v 1.1 2002/11/22 22:46:31 mleisher Exp $
COMMENT
COMMENT Copyright 2002 Computing Research Labs, New Mexico State University
COMMENT
COMMENT Permission is hereby granted, free of charge, to any person
COMMENT obtaining a copy of this software and associated documentation
COMMENT files (the "Software"), to deal in the Software without
COMMENT restriction, including without limitation the rights to use,
COMMENT copy, modify, merge, publish, distribute, sublicense, and/or
COMMENT sell copies of the Software, and to permit persons to whom the
COMMENT Software is furnished to do so, subject to the following
COMMENT conditions:
COMMENT
COMMENT The above copyright notice and this permission notice shall be
COMMENT included in all copies or substantial portions of the Software.
COMMENT
COMMENT THE SOFTWARE IS PROVIDED "AS IS", WITHOUT WARRANTY OF ANY KIND,
COMMENT EXPRESS OR IMPLIED, INCLUDING BUT NOT LIMITED TO THE WARRANTIES
COMMENT OF MERCHANTABILITY, FITNESS FOR A PARTICULAR PURPOSE AND
COMMENT NONINFRINGEMENT.  IN NO EVENT SHALL THE COMPUTING RESEARCH LAB
COMMENT OR NEW MEXICO STATE UNIVERSITY BE LIABLE FOR ANY CLAIM, DAMAGES
COMMENT OR OTHER LIABILITY, WHETHER IN AN ACTION OF CONTRACT, TORT OR
COMMENT OTHERWISE, ARISING FROM, OUT OF OR IN CONNECTION WITH THE
COMMENT SOFTWARE OR THE USE OR OTHER DEALINGS IN THE SOFTWARE.
COMMENT
COMMENT This font contains glyphs to support text encoded in the Devanagari
COMMENT section of Unicode.  Many glyphs (not characters) needed are stored
COMMENT in the PUA area starting at E900.
COMMENT
FONT -MUTT-ClearlyU Devanagari-Medium-R-Normal--15-120-90-90-P-104-FontSpecific-0
SIZE 12 90 90
FONTBOUNDINGBOX 31 25 -12 -7
STARTPROPERTIES 11
FOUNDRY "MUTT"
FAMILY_NAME "ClearlyU Devanagari"
WEIGHT_NAME "Medium"
SLANT "R"
SETWIDTH_NAME "Normal"
SPACING "c"
CHARSET_REGISTRY "ISO-8859"
CHARSET_ENCODING "1"
COPYRIGHT "Designer of this font retains full rights under the law"
FONT_ASCENT  18
FONT_DESCENT 7
ENDPROPERTIES
CHARS 220
STARTCHAR uni0901
ENCODING 1
SWIDTH 0 0
DWIDTH 0 0
BBX 6 4 -8 13
BITMAP
10
94
44
38
ENDCHAR
STARTCHAR uni0902
ENCODING 2
SWIDTH 0 0
DWIDTH 0 0
BBX 1 2 -5 14
BITMAP
80
80
ENDCHAR
STARTCHAR uni0903
ENCODING 3
SWIDTH 583 0
DWIDTH 7 0
BBX 3 9 2 1
BITMAP
40
e0
40
00
00
00
40
e0
40
ENDCHAR
STARTCHAR uni0905
ENCODING 4
SWIDTH 1250 0
DWIDTH 15 0
BBX 15 12 0 -1
BITMAP
78fe
0420
0220
0420
3c20
83e0
8120
4120
2320
1e20
0020
0020
ENDCHAR
STARTCHAR uni0906
ENCODING 5
SWIDTH 1583 0
DWIDTH 19 0
BBX 19 12 0 -1
BITMAP
78ffe0
042200
022200
042200
3c2200
83e200
822200
422200
262200
1c2200
002200
002200
ENDCHAR
STARTCHAR uni0907
ENCODING 6
SWIDTH 833 0
DWIDTH 10 0
BBX 10 13 0 -2
BITMAP
ffc0
0400
7c00
4000
4000
3800
0400
0400
3c00
3c00
0400
0200
0100
ENDCHAR
STARTCHAR uni0908
ENCODING 7
SWIDTH 833 0
DWIDTH 10 0
BBX 10 18 0 -2
BITMAP
0c00
1200
1000
0800
0400
ffc0
0400
7c00
4000
4000
3800
0400
0400
3c00
3c00
0400
0200
0100
ENDCHAR
STARTCHAR uni0909
ENCODING 8
SWIDTH 1000 0
DWIDTH 12 0
BBX 12 11 0 0
BITMAP
fff0
0100
0100
0100
1e00
8300
8080
4080
4080
3180
0f00
ENDCHAR
STARTCHAR uni090A
ENCODING 9
SWIDTH 1000 0
DWIDTH 12 0
BBX 13 11 0 0
BITMAP
fff8
0100
0100
0100
1e00
83b0
80c8
4088
4088
3190
0f00
ENDCHAR
STARTCHAR uni090B
ENCODING 10
SWIDTH 1166 0
DWIDTH 14 0
BBX 14 12 0 -1
BITMAP
fffc
0100
0100
3910
4538
03f0
0310
0d08
3110
0120
0120
0018
ENDCHAR
STARTCHAR uni090C
ENCODING 11
SWIDTH 1166 0
DWIDTH 14 0
BBX 14 13 0 -2
BITMAP
fffc
0040
0040
0040
78e0
c590
8308
8008
4008
4070
2080
1080
0078
ENDCHAR
STARTCHAR uni090D
ENCODING 12
SWIDTH 1166 0
DWIDTH 14 0
BBX 14 21 0 -5
BITMAP
0210
0110
00e0
0000
0000
fffc
1040
1040
1040
1040
1040
1040
1180
0800
0400
0300
0080
0060
0010
0010
0020
ENDCHAR
STARTCHAR uni090E
ENCODING 13
SWIDTH 1166 0
DWIDTH 14 0
BBX 14 21 0 -5
BITMAP
1000
1000
0f80
0040
0040
fffc
1040
1040
1040
1040
1040
1040
1180
0800
0400
0300
0080
0060
0010
0010
0020
ENDCHAR
STARTCHAR uni090F
ENCODING 14
SWIDTH 1166 0
DWIDTH 14 0
BBX 14 16 0 -5
BITMAP
fffc
1040
1040
1040
1040
1040
1040
1180
0800
0400
0300
0080
0060
0010
0010
0020
ENDCHAR
STARTCHAR uni0910
ENCODING 15
SWIDTH 1166 0
DWIDTH 14 0
BBX 14 21 0 -5
BITMAP
1800
0600
0100
0080
0040
fffc
1040
1040
1040
1040
1040
1040
1180
0800
0400
0300
0080
0060
0010
0010
0020
ENDCHAR
STARTCHAR uni0911
ENCODING 16
SWIDTH 1583 0
DWIDTH 19 0
BBX 19 16 0 -1
BITMAP
001080
000880
000700
000000
78ffe0
042200
022200
042200
3c2200
83e200
812200
412200
232200
1e2200
002200
002200
ENDCHAR
STARTCHAR uni0912
ENCODING 17
SWIDTH 1583 0
DWIDTH 19 0
BBX 19 17 0 -1
BITMAP
008000
008000
007c00
000200
000200
78ffe0
042200
022200
042200
3c2200
83e200
822200
422200
262200
1c2200
002200
002200
ENDCHAR
STARTCHAR uni0913
ENCODING 18
SWIDTH 1583 0
DWIDTH 19 0
BBX 19 17 0 -1
BITMAP
00c000
003000
000800
000400
000200
78ffe0
042200
022200
042200
3c2200
83e200
822200
422200
262200
1c2200
002200
002200
ENDCHAR
STARTCHAR uni0914
ENCODING 19
SWIDTH 1583 0
DWIDTH 19 0
BBX 19 18 0 -1
BITMAP
006000
001000
018800
007400
000e00
000200
78ffe0
042200
022200
042200
3c2200
83e200
822200
422200
262200
1c2200
002200
002200
ENDCHAR
STARTCHAR uni0915
ENCODING 20
SWIDTH 1083 0
DWIDTH 13 0
BBX 13 11 0 0
BITMAP
fff8
0200
0200
3a00
46e0
4310
4610
3a10
0210
0220
0200
ENDCHAR
STARTCHAR uni0916
ENCODING 21
SWIDTH 1250 0
DWIDTH 15 0
BBX 15 11 0 0
BITMAP
fffe
1020
1020
13a0
b660
e460
44e0
43a0
2020
1060
0fa0
ENDCHAR
STARTCHAR uni0917
ENCODING 22
SWIDTH 1000 0
DWIDTH 12 0
BBX 12 11 0 0
BITMAP
fff0
2100
2100
2100
2100
2100
a100
6100
2100
0100
0100
ENDCHAR
STARTCHAR uni0918
ENCODING 23
SWIDTH 1083 0
DWIDTH 13 0
BBX 13 11 0 0
BITMAP
fff8
4080
4080
3c80
3080
2080
2180
1e80
0080
0080
0080
ENDCHAR
STARTCHAR uni0919
ENCODING 24
SWIDTH 916 0
DWIDTH 11 0
BBX 11 10 0 1
BITMAP
ffe0
0200
3e00
2000
2040
1e40
8100
8100
4100
3e00
ENDCHAR
STARTCHAR uni091A
ENCODING 25
SWIDTH 1083 0
DWIDTH 13 0
BBX 13 11 0 0
BITMAP
fff8
0080
0080
0080
7f80
0880
1080
1180
0e80
0080
0080
ENDCHAR
STARTCHAR uni091B
ENCODING 26
SWIDTH 1250 0
DWIDTH 15 0
BBX 15 12 0 -1
BITMAP
fffe
0020
0020
3870
40c8
4088
3e48
1838
1018
1018
1864
0f84
ENDCHAR
STARTCHAR uni091C
ENCODING 27
SWIDTH 1166 0
DWIDTH 14 0
BBX 14 11 0 0
BITMAP
fffc
0040
0040
0040
8fc0
8440
4240
4240
2240
1c40
0040
ENDCHAR
STARTCHAR uni091D
ENCODING 28
SWIDTH 1250 0
DWIDTH 15 0
BBX 15 12 0 -1
BITMAP
fffe
0420
7c20
4020
4020
3fe0
0420
0420
3c20
3c20
0420
0200
ENDCHAR
STARTCHAR uni091E
ENCODING 29
SWIDTH 1083 0
DWIDTH 13 0
BBX 13 11 0 0
BITMAP
fff8
0080
1880
2480
0780
8480
4c80
3880
0080
0080
0080
ENDCHAR
STARTCHAR uni091F
ENCODING 30
SWIDTH 916 0
DWIDTH 11 0
BBX 11 11 0 0
BITMAP
ffe0
0200
0200
3e00
6000
c000
8000
8000
8100
4300
3e00
ENDCHAR
STARTCHAR uni0920
ENCODING 31
SWIDTH 916 0
DWIDTH 11 0
BBX 11 11 0 0
BITMAP
ffe0
0200
0200
1e00
3100
6080
4080
4080
4080
2180
1f00
ENDCHAR
STARTCHAR uni0921
ENCODING 32
SWIDTH 916 0
DWIDTH 11 0
BBX 11 10 0 1
BITMAP
ffe0
0200
3e00
2000
1000
0e00
8100
8080
4080
3f00
ENDCHAR
STARTCHAR uni0922
ENCODING 33
SWIDTH 916 0
DWIDTH 11 0
BBX 11 11 0 0
BITMAP
ffe0
0200
0200
7e00
c000
8000
8600
8d00
4900
2900
1e00
ENDCHAR
STARTCHAR uni0923
ENCODING 34
SWIDTH 1166 0
DWIDTH 14 0
BBX 14 11 0 0
BITMAP
fffc
4440
4440
4440
4440
4440
4440
2440
1840
0040
0040
ENDCHAR
STARTCHAR uni0924
ENCODING 35
SWIDTH 1000 0
DWIDTH 12 0
BBX 12 12 0 -1
BITMAP
fff0
0100
0100
0100
7f00
c100
8100
8100
4100
4100
2100
1000
ENDCHAR
STARTCHAR uni0925
ENCODING 36
SWIDTH 1000 0
DWIDTH 12 0
BBX 12 11 0 0
BITMAP
67f0
d100
8900
7900
3100
e100
4100
2100
1f00
0100
0100
ENDCHAR
STARTCHAR uni0926
ENCODING 37
SWIDTH 916 0
DWIDTH 11 0
BBX 11 11 0 0
BITMAP
ffe0
0200
0200
3e00
4000
4000
4300
2300
1f00
0100
0080
ENDCHAR
STARTCHAR uni0927
ENCODING 38
SWIDTH 1000 0
DWIDTH 12 0
BBX 12 11 0 0
BITMAP
47f0
8100
8100
7900
6100
4100
4300
3d00
0100
0100
0100
ENDCHAR
STARTCHAR uni0928
ENCODING 39
SWIDTH 1000 0
DWIDTH 12 0
BBX 12 11 0 0
BITMAP
fff0
0100
0100
0100
ff00
c100
4100
2100
0100
0100
0100
ENDCHAR
STARTCHAR uni0929
ENCODING 40
SWIDTH 1000 0
DWIDTH 12 0
BBX 12 11 0 0
BITMAP
fff0
0100
0100
0100
ff00
c100
4100
2100
0100
0900
0900
ENDCHAR
STARTCHAR uni092A
ENCODING 41
SWIDTH 916 0
DWIDTH 11 0
BBX 11 11 0 0
BITMAP
ffe0
4200
4200
4200
4200
4200
4600
3a00
0200
0200
0200
ENDCHAR
STARTCHAR uni092B
ENCODING 42
SWIDTH 1083 0
DWIDTH 13 0
BBX 13 11 0 0
BITMAP
fff8
4200
4200
42e0
4310
4610
3a10
0210
0220
0200
0200
ENDCHAR
STARTCHAR uni092C
ENCODING 43
SWIDTH 916 0
DWIDTH 11 0
BBX 11 11 0 0
BITMAP
ffe0
0200
0200
7a00
e600
9600
8e00
7a00
0200
0200
0200
ENDCHAR
STARTCHAR uni092D
ENCODING 44
SWIDTH 1000 0
DWIDTH 12 0
BBX 12 11 0 0
BITMAP
c7f0
a100
9100
7100
1100
ff00
6100
2100
0100
0100
0100
ENDCHAR
STARTCHAR uni092E
ENCODING 45
SWIDTH 1000 0
DWIDTH 12 0
BBX 12 11 0 0
BITMAP
fff0
2100
2100
2100
2100
ff00
6100
2100
0100
0100
0100
ENDCHAR
STARTCHAR uni092F
ENCODING 46
SWIDTH 1000 0
DWIDTH 12 0
BBX 12 11 0 0
BITMAP
fff0
1100
1100
2100
c100
8100
4300
3d00
0100
0100
0100
ENDCHAR
STARTCHAR uni0930
ENCODING 47
SWIDTH 833 0
DWIDTH 10 0
BBX 11 12 0 -1
BITMAP
ffe0
0200
0200
0200
1600
1c00
0800
0800
0400
0400
0200
0100
ENDCHAR
STARTCHAR uni0931
ENCODING 48
SWIDTH 833 0
DWIDTH 10 0
BBX 11 12 0 -1
BITMAP
ffe0
0200
0200
0200
1600
1c00
0800
0800
0400
1400
1200
0100
ENDCHAR
STARTCHAR uni0932
ENCODING 49
SWIDTH 1250 0
DWIDTH 15 0
BBX 15 11 0 0
BITMAP
fffe
0020
0020
0020
78e0
8520
8220
8020
4020
4020
2020
ENDCHAR
STARTCHAR uni0933
ENCODING 50
SWIDTH 1250 0
DWIDTH 15 0
BBX 15 11 0 0
BITMAP
fffe
0020
0020
0020
7860
c490
8108
8208
8308
4498
3870
ENDCHAR
STARTCHAR uni0934
ENCODING 51
SWIDTH 1250 0
DWIDTH 15 0
BBX 15 15 0 -4
BITMAP
fffe
0020
0020
0020
7860
c490
8108
8208
8308
4498
3870
0000
0000
0200
0200
ENDCHAR
STARTCHAR uni0935
ENCODING 52
SWIDTH 916 0
DWIDTH 11 0
BBX 11 11 0 0
BITMAP
ffe0
0200
0200
7a00
8600
8600
8600
7a00
0200
0200
0200
ENDCHAR
STARTCHAR uni0936
ENCODING 53
SWIDTH 1166 0
DWIDTH 14 0
BBX 14 11 0 0
BITMAP
fffc
1440
2240
2240
2240
1e40
2240
5c40
3840
0440
0440
ENDCHAR
STARTCHAR uni0937
ENCODING 54
SWIDTH 916 0
DWIDTH 11 0
BBX 11 11 0 0
BITMAP
ffe0
6200
5200
5200
4a00
4a00
2600
1e00
0200
0200
0200
ENDCHAR
STARTCHAR uni0938
ENCODING 55
SWIDTH 1083 0
DWIDTH 13 0
BBX 13 12 0 -1
BITMAP
fff8
1080
1080
1080
b180
fe80
4080
4080
2080
2080
1080
0800
ENDCHAR
STARTCHAR uni0939
ENCODING 56
SWIDTH 916 0
DWIDTH 11 0
BBX 11 14 0 -3
BITMAP
ffe0
0200
0200
1e00
2000
1000
1e00
3100
2100
2200
2000
1000
0800
0600
ENDCHAR
STARTCHAR uni093C
ENCODING 57
SWIDTH 0 0
DWIDTH 0 0
BBX 1 2 -7 -4
BITMAP
80
80
ENDCHAR
STARTCHAR uni093D
ENCODING 58
SWIDTH 750 0
DWIDTH 9 0
BBX 7 12 1 -1
BITMAP
3e
60
40
40
20
10
88
88
84
84
4c
38
ENDCHAR
STARTCHAR uni093E
ENCODING 59
SWIDTH 333 0
DWIDTH 4 0
BBX 4 11 0 0
BITMAP
f0
40
40
40
40
40
40
40
40
40
40
ENDCHAR
STARTCHAR uni093F
ENCODING 60
SWIDTH 416 0
DWIDTH 5 0
BBX 12 16 0 0
BITMAP
1e00
2180
2060
2010
2000
f000
2000
2000
2000
2000
2000
2000
2000
2000
2000
2000
ENDCHAR
STARTCHAR uni0940
ENCODING 61
SWIDTH 333 0
DWIDTH 4 0
BBX 9 16 -5 0
BITMAP
7000
8800
8400
8200
0200
0780
0200
0200
0200
0200
0200
0200
0200
0200
0200
0200
ENDCHAR
STARTCHAR uni0941
ENCODING 62
SWIDTH 0 0
DWIDTH 0 0
BBX 8 4 0 -4
BITMAP
0e
89
61
1f
ENDCHAR
STARTCHAR uni0942
ENCODING 63
SWIDTH 0 0
DWIDTH 0 0
BBX 7 5 0 -5
BITMAP
e0
98
84
42
30
ENDCHAR
STARTCHAR uni0943
ENCODING 64
SWIDTH 0 0
DWIDTH 0 0
BBX 5 4 0 -4
BITMAP
70
c0
80
78
ENDCHAR
STARTCHAR uni0944
ENCODING 65
SWIDTH 0 0
DWIDTH 0 0
BBX 6 7 0 -7
BITMAP
70
80
80
78
80
80
7c
ENDCHAR
STARTCHAR uni0945
ENCODING 66
SWIDTH 0 0
DWIDTH 0 0
BBX 6 3 -8 13
BITMAP
84
44
38
ENDCHAR
STARTCHAR uni0946
ENCODING 67
SWIDTH 0 0
DWIDTH 0 0
BBX 7 5 -11 10
BITMAP
80
80
7c
02
02
ENDCHAR
STARTCHAR uni0947
ENCODING 68
SWIDTH 0 0
DWIDTH 0 0
BBX 7 5 -11 11
BITMAP
e0
10
08
04
02
ENDCHAR
STARTCHAR uni0948
ENCODING 69
SWIDTH 0 0
DWIDTH 0 0
BBX 8 6 -12 11
BITMAP
30
18
e4
7a
06
01
ENDCHAR
STARTCHAR uni0949
ENCODING 70
SWIDTH 333 0
DWIDTH 4 0
BBX 6 15 -1 0
BITMAP
84
44
38
00
78
20
20
20
20
20
20
20
20
20
20
ENDCHAR
STARTCHAR uni094A
ENCODING 71
SWIDTH 333 0
DWIDTH 4 0
BBX 9 16 -5 0
BITMAP
8000
8000
7c00
0200
0200
0780
0200
0200
0200
0200
0200
0200
0200
0200
0200
0200
ENDCHAR
STARTCHAR uni094B
ENCODING 72
SWIDTH 333 0
DWIDTH 4 0
BBX 9 16 -5 0
BITMAP
e000
1000
0800
0400
0200
0780
0200
0200
0200
0200
0200
0200
0200
0200
0200
0200
ENDCHAR
STARTCHAR uni094C
ENCODING 73
SWIDTH 333 0
DWIDTH 4 0
BBX 10 17 -6 0
BITMAP
3000
1800
e400
7a00
0600
0100
03c0
0100
0100
0100
0100
0100
0100
0100
0100
0100
0100
ENDCHAR
STARTCHAR uni094D
ENCODING 74
SWIDTH 0 0
DWIDTH 0 0
BBX 5 3 -6 -3
BITMAP
e0
10
08
ENDCHAR
STARTCHAR uni0950
ENCODING 75
SWIDTH 1416 0
DWIDTH 17 0
BBX 15 13 1 -1
BITMAP
0010
0092
7882
0446
023c
0400
080c
1e12
8132
81ac
4140
2300
1e00
ENDCHAR
STARTCHAR uni0951
ENCODING 76
SWIDTH 83 0
DWIDTH 1 0
BBX 1 4 0 11
BITMAP
80
80
80
80
ENDCHAR
STARTCHAR uni0952
ENCODING 77
SWIDTH 333 0
DWIDTH 4 0
BBX 4 4 0 11
BITMAP
80
40
20
10
ENDCHAR
STARTCHAR uni0953
ENCODING 78
SWIDTH 333 0
DWIDTH 4 0
BBX 4 4 0 11
BITMAP
10
20
40
80
ENDCHAR
STARTCHAR uni0958
ENCODING 79
SWIDTH 1083 0
DWIDTH 13 0
BBX 13 11 0 0
BITMAP
fff8
0200
0200
3a00
46e0
4310
4610
3a10
0210
1220
1200
ENDCHAR
STARTCHAR uni0959
ENCODING 80
SWIDTH 1166 0
DWIDTH 14 0
BBX 14 15 0 -4
BITMAP
fffc
1020
1020
13a0
b660
e460
44e0
43a0
2020
1060
0fa0
0000
0000
0100
0100
ENDCHAR
STARTCHAR uni095A
ENCODING 81
SWIDTH 1000 0
DWIDTH 12 0
BBX 12 11 0 0
BITMAP
fff0
2100
2100
2100
2100
2100
a100
6100
2100
0900
0900
ENDCHAR
STARTCHAR uni095B
ENCODING 82
SWIDTH 1166 0
DWIDTH 14 0
BBX 14 15 0 -4
BITMAP
fffc
0040
0040
0040
8fc0
8440
4240
4240
2240
1c40
0040
0000
0000
0200
0200
ENDCHAR
STARTCHAR uni095C
ENCODING 83
SWIDTH 916 0
DWIDTH 11 0
BBX 11 15 0 -4
BITMAP
ffe0
0200
3e00
2000
2000
1e00
8100
8100
4100
3e00
0000
0000
0000
0400
0400
ENDCHAR
STARTCHAR uni095D
ENCODING 84
SWIDTH 916 0
DWIDTH 11 0
BBX 11 15 0 -4
BITMAP
ffe0
0200
0200
7e00
c000
8000
8600
8d00
4900
2900
1e00
0000
0000
0800
0800
ENDCHAR
STARTCHAR uni095E
ENCODING 85
SWIDTH 1083 0
DWIDTH 13 0
BBX 13 11 0 0
BITMAP
fff8
4200
4200
42c0
4320
4610
3a10
0210
0210
1220
1200
ENDCHAR
STARTCHAR uni095F
ENCODING 86
SWIDTH 1000 0
DWIDTH 12 0
BBX 12 15 0 -4
BITMAP
fff0
1100
1100
2100
c100
8100
4300
3d00
0100
0100
0100
0000
0000
1000
1000
ENDCHAR
STARTCHAR uni0960
ENCODING 87
SWIDTH 1166 0
DWIDTH 14 0
BBX 15 14 0 -3
BITMAP
fffc
0100
0100
3910
4538
03f0
0308
0d08
3110
0124
0128
0012
0014
0008
ENDCHAR
STARTCHAR uni0961
ENCODING 88
SWIDTH 1166 0
DWIDTH 14 0
BBX 14 15 0 -4
BITMAP
fffc
0040
0040
0040
78e0
c590
8308
8008
4070
40c0
2080
1070
00c0
0080
0078
ENDCHAR
STARTCHAR uni0962
ENCODING 89
SWIDTH 0 0
DWIDTH 0 0
BBX 8 5 -8 -5
BITMAP
6c
92
82
44
03
ENDCHAR
STARTCHAR uni0963
ENCODING 90
SWIDTH 583 0
DWIDTH 7 0
BBX 7 7 -8 -7
BITMAP
6c
92
84
48
06
08
06
ENDCHAR
STARTCHAR uni0964
ENCODING 91
SWIDTH 583 0
DWIDTH 7 0
BBX 1 11 3 -1
BITMAP
80
80
80
80
80
80
80
80
80
80
80
ENDCHAR
STARTCHAR uni0965
ENCODING 92
SWIDTH 750 0
DWIDTH 9 0
BBX 5 11 2 -1
BITMAP
88
88
88
88
88
88
88
88
88
88
88
ENDCHAR
STARTCHAR uni0966
ENCODING 93
SWIDTH 583 0
DWIDTH 7 0
BBX 6 7 0 2
BITMAP
70
c8
84
84
84
4c
38
ENDCHAR
STARTCHAR uni0967
ENCODING 94
SWIDTH 583 0
DWIDTH 7 0
BBX 5 15 1 -4
BITMAP
60
90
88
88
78
08
10
20
40
80
40
20
10
08
08
ENDCHAR
STARTCHAR uni0968
ENCODING 95
SWIDTH 833 0
DWIDTH 10 0
BBX 8 12 1 -2
BITMAP
fc
02
01
01
61
7e
38
10
08
04
02
02
ENDCHAR
STARTCHAR uni0969
ENCODING 96
SWIDTH 750 0
DWIDTH 9 0
BBX 7 13 1 -2
BITMAP
f0
08
08
08
78
04
04
04
78
78
08
04
02
ENDCHAR
STARTCHAR uni096A
ENCODING 97
SWIDTH 1000 0
DWIDTH 12 0
BBX 10 10 1 1
BITMAP
8040
40c0
2180
1300
0e00
0c00
1a00
1200
1600
0c00
ENDCHAR
STARTCHAR uni096B
ENCODING 98
SWIDTH 833 0
DWIDTH 10 0
BBX 9 12 1 -1
BITMAP
8000
8000
8600
8600
4600
3c00
0200
0200
0100
0100
0080
0080
ENDCHAR
STARTCHAR uni096C
ENCODING 99
SWIDTH 750 0
DWIDTH 9 0
BBX 6 13 2 -2
BITMAP
70
80
80
80
78
40
40
40
3c
3c
20
40
80
ENDCHAR
STARTCHAR uni096D
ENCODING 100
SWIDTH 1083 0
DWIDTH 13 0
BBX 10 11 1 0
BITMAP
8000
8000
8300
8680
4440
4440
42c0
21c0
2040
1880
0700
ENDCHAR
STARTCHAR uni096E
ENCODING 101
SWIDTH 750 0
DWIDTH 9 0
BBX 7 11 1 0
BITMAP
02
04
08
10
20
40
80
80
86
4c
38
ENDCHAR
STARTCHAR uni096F
ENCODING 102
SWIDTH 833 0
DWIDTH 10 0
BBX 8 13 1 -2
BITMAP
70
c8
88
98
70
20
20
10
08
04
02
01
03
ENDCHAR
STARTCHAR uni0970
ENCODING 103
SWIDTH 916 0
DWIDTH 11 0
BBX 5 5 3 5
BITMAP
70
88
88
88
70
ENDCHAR
STARTCHAR uni0000
ENCODING 104
SWIDTH 1166 0
DWIDTH 14 0
BBX 14 13 0 -2
BITMAP
31fc
6840
4440
4cc0
29c0
7e40
c040
8040
8440
8e40
7e40
0400
0200
ENDCHAR
STARTCHAR uni0001
ENCODING 105
SWIDTH 1000 0
DWIDTH 12 0
BBX 12 11 0 0
BITMAP
fff0
0100
0100
7f00
3100
0900
0500
6500
7900
1100
0900
ENDCHAR
STARTCHAR uni0002
ENCODING 106
SWIDTH 1166 0
DWIDTH 14 0
BBX 14 11 0 0
BITMAP
fffc
0040
0040
0040
ffc0
1040
2040
2040
2040
1040
0840
ENDCHAR
STARTCHAR uni0003
ENCODING 107
SWIDTH 916 0
DWIDTH 11 0
BBX 11 11 0 0
BITMAP
ffe0
0200
0200
3a00
4600
0600
0a00
1200
2200
0200
0200
ENDCHAR
STARTCHAR uni0004
ENCODING 108
SWIDTH 1166 0
DWIDTH 14 0
BBX 14 12 0 -1
BITMAP
fffc
1840
2440
2440
1840
6740
00c0
7c40
18c0
10c0
1140
0e00
ENDCHAR
STARTCHAR uni0005
ENCODING 109
SWIDTH 1166 0
DWIDTH 14 0
BBX 14 11 0 0
BITMAP
fffc
1840
2440
2440
1840
6740
00c0
01c0
0240
0440
0040
ENDCHAR
STARTCHAR uni0006
ENCODING 110
SWIDTH 1166 0
DWIDTH 14 0
BBX 14 11 0 0
BITMAP
fffc
1840
2440
2440
1840
6740
08c0
08c0
08c0
0740
0040
ENDCHAR
STARTCHAR uni0007
ENCODING 111
SWIDTH 1083 0
DWIDTH 13 0
BBX 13 11 0 0
BITMAP
fff8
0200
0200
3a00
46e0
4310
4610
3a10
0a10
3220
4200
ENDCHAR
STARTCHAR uni0008
ENCODING 112
SWIDTH 1416 0
DWIDTH 17 0
BBX 17 11 0 0
BITMAP
ffff80
000800
000800
000800
8ff800
840800
820800
421800
222800
1c4800
008800
ENDCHAR
STARTCHAR uni0009
ENCODING 113
SWIDTH 1416 0
DWIDTH 17 0
BBX 17 11 0 0
BITMAP
ffff80
000800
000800
000800
8ff800
840800
828800
429800
222800
1e4800
008800
ENDCHAR
STARTCHAR uni000A
ENCODING 114
SWIDTH 1083 0
DWIDTH 13 0
BBX 13 11 0 0
BITMAP
fff8
4200
4200
42e0
4310
4610
3a10
0a10
1220
2200
4200
ENDCHAR
STARTCHAR uni000B
ENCODING 115
SWIDTH 1083 0
DWIDTH 13 0
BBX 13 11 0 0
BITMAP
fff8
4200
4200
42e0
4310
4610
3a10
8a10
9220
2200
4200
ENDCHAR
STARTCHAR uni000C
ENCODING 116
SWIDTH 916 0
DWIDTH 11 0
BBX 11 11 0 0
BITMAP
ffe0
4200
4200
4200
4200
4200
3e00
0a00
1200
2200
4200
ENDCHAR
STARTCHAR uni000D
ENCODING 117
SWIDTH 1166 0
DWIDTH 14 0
BBX 14 12 0 -1
BITMAP
fffc
1040
1040
1040
b0c0
ffc0
40c0
4140
2240
2440
1040
0800
ENDCHAR
STARTCHAR uni000E
ENCODING 118
SWIDTH 916 0
DWIDTH 11 0
BBX 11 12 0 -1
BITMAP
ffe0
0200
0200
0200
2700
3c80
1080
1180
0800
0400
0200
0100
ENDCHAR
STARTCHAR uni000F
ENCODING 119
SWIDTH 1000 0
DWIDTH 12 0
BBX 12 11 0 0
BITMAP
fff0
0400
0400
0400
25c0
1e20
1210
1180
0800
0400
0200
ENDCHAR
STARTCHAR uni0015
ENCODING 120
SWIDTH 833 0
DWIDTH 10 0
BBX 10 11 0 0
BITMAP
ffc0
0400
0400
7400
8dc0
8600
8c00
7400
0400
0400
0400
ENDCHAR
STARTCHAR uni0016
ENCODING 121
SWIDTH 833 0
DWIDTH 10 0
BBX 10 11 0 0
BITMAP
ffc0
1000
1000
1380
b640
e440
44c0
4380
2000
1040
0f80
ENDCHAR
STARTCHAR uni0017
ENCODING 122
SWIDTH 583 0
DWIDTH 7 0
BBX 7 9 0 2
BITMAP
fe
20
20
20
20
20
a0
60
20
ENDCHAR
STARTCHAR uni0018
ENCODING 123
SWIDTH 666 0
DWIDTH 8 0
BBX 8 8 0 3
BITMAP
ff
40
40
3c
30
20
21
1e
ENDCHAR
STARTCHAR uni0019
ENCODING 124
SWIDTH 916 0
DWIDTH 11 0
BBX 11 14 0 -3
BITMAP
ffe0
0200
3e00
2000
2040
1e40
8100
8100
4100
3e00
0000
0e00
0100
0080
ENDCHAR
STARTCHAR uni001A
ENCODING 125
SWIDTH 666 0
DWIDTH 8 0
BBX 8 9 0 2
BITMAP
ff
00
00
00
7f
08
10
11
0e
ENDCHAR
STARTCHAR uni001B
ENCODING 126
SWIDTH 1166 0
DWIDTH 14 0
BBX 14 12 0 -1
BITMAP
fffc
0000
0000
3870
40c8
4088
3e48
1838
1018
1010
1860
0f80
ENDCHAR
STARTCHAR uni001C
ENCODING 127
SWIDTH 750 0
DWIDTH 9 0
BBX 9 10 0 1
BITMAP
ff80
0000
0000
0000
8f80
8400
4200
4200
2200
1c00
ENDCHAR
STARTCHAR uni001D
ENCODING 128
SWIDTH 833 0
DWIDTH 10 0
BBX 10 12 0 -1
BITMAP
ffc0
0400
7c00
4000
4000
3fc0
0400
0400
3c00
3c00
0400
0200
ENDCHAR
STARTCHAR uni001E
ENCODING 129
SWIDTH 666 0
DWIDTH 8 0
BBX 8 8 0 3
BITMAP
ff
00
18
24
07
84
4c
38
ENDCHAR
STARTCHAR uni001F
ENCODING 130
SWIDTH 916 0
DWIDTH 11 0
BBX 11 15 0 -4
BITMAP
ffe0
0200
0200
3e00
6000
c000
8000
8000
8100
4300
3e00
0000
0e00
0100
0080
ENDCHAR
STARTCHAR uni0020
ENCODING 131
SWIDTH 916 0
DWIDTH 11 0
BBX 11 15 0 -4
BITMAP
ffe0
0200
0200
1e00
3100
6080
4080
4080
4080
2180
1f00
0000
0e00
0100
0080
ENDCHAR
STARTCHAR uni0021
ENCODING 132
SWIDTH 916 0
DWIDTH 11 0
BBX 11 14 0 -3
BITMAP
ffe0
0200
3e00
2000
1000
0e00
8100
8080
4080
3f00
0000
0e00
0100
0080
ENDCHAR
STARTCHAR uni0022
ENCODING 133
SWIDTH 916 0
DWIDTH 11 0
BBX 11 15 0 -4
BITMAP
ffe0
0200
0200
7e00
c000
8000
8600
8d00
4900
2900
1e00
0000
0e00
0100
0080
ENDCHAR
STARTCHAR uni0023
ENCODING 134
SWIDTH 750 0
DWIDTH 9 0
BBX 9 9 0 2
BITMAP
ff80
4400
4400
4400
4400
4400
4400
2400
1800
ENDCHAR
STARTCHAR uni0024
ENCODING 135
SWIDTH 583 0
DWIDTH 7 0
BBX 7 12 0 -1
BITMAP
fe
00
00
00
7e
c0
80
80
40
40
20
10
ENDCHAR
STARTCHAR uni0025
ENCODING 136
SWIDTH 583 0
DWIDTH 7 0
BBX 7 9 0 2
BITMAP
66
d0
88
78
30
e0
40
20
1e
ENDCHAR
STARTCHAR uni0026
ENCODING 137
SWIDTH 833 0
DWIDTH 10 0
BBX 10 14 0 -3
BITMAP
ffc0
0400
0400
7c00
8000
8000
8600
4600
3e00
0200
0100
1c00
0200
0100
ENDCHAR
STARTCHAR uni0027
ENCODING 138
SWIDTH 583 0
DWIDTH 7 0
BBX 7 8 0 3
BITMAP
46
80
80
78
60
40
42
3c
ENDCHAR
STARTCHAR uni0028
ENCODING 139
SWIDTH 583 0
DWIDTH 7 0
BBX 7 8 0 3
BITMAP
fe
00
00
00
fe
c0
40
20
ENDCHAR
STARTCHAR uni0029
ENCODING 140
SWIDTH 583 0
DWIDTH 7 0
BBX 7 11 0 0
BITMAP
fe
00
00
00
fe
c0
40
20
00
08
08
ENDCHAR
STARTCHAR uni002A
ENCODING 141
SWIDTH 500 0
DWIDTH 6 0
BBX 6 8 0 3
BITMAP
fc
40
40
40
40
40
44
38
ENDCHAR
STARTCHAR uni002B
ENCODING 142
SWIDTH 916 0
DWIDTH 11 0
BBX 11 11 0 0
BITMAP
ffe0
4200
4200
42e0
4300
4600
3a00
0200
0200
0200
0200
ENDCHAR
STARTCHAR uni002C
ENCODING 143
SWIDTH 500 0
DWIDTH 6 0
BBX 6 8 0 3
BITMAP
fc
00
00
78
e4
94
8c
78
ENDCHAR
STARTCHAR uni002D
ENCODING 144
SWIDTH 583 0
DWIDTH 7 0
BBX 7 8 0 3
BITMAP
c6
a0
90
70
10
fe
60
20
ENDCHAR
STARTCHAR uni002E
ENCODING 145
SWIDTH 583 0
DWIDTH 7 0
BBX 7 8 0 3
BITMAP
fe
20
20
20
20
fe
60
20
ENDCHAR
STARTCHAR uni002F
ENCODING 146
SWIDTH 583 0
DWIDTH 7 0
BBX 7 8 0 3
BITMAP
fe
10
10
20
c0
80
42
3c
ENDCHAR
STARTCHAR uni0030
ENCODING 147
SWIDTH 833 0
DWIDTH 10 0
BBX 10 15 0 -4
BITMAP
ffc0
0400
0400
0400
2c00
3800
1000
1000
0800
0800
0400
0200
1c00
0200
0100
ENDCHAR
STARTCHAR uni0031
ENCODING 148
SWIDTH 833 0
DWIDTH 10 0
BBX 10 16 0 -5
BITMAP
ffc0
0400
0400
0400
2c00
3800
1000
1000
0800
2800
2400
0200
0000
1c00
0200
0100
ENDCHAR
STARTCHAR uni0032
ENCODING 149
SWIDTH 833 0
DWIDTH 10 0
BBX 10 11 0 0
BITMAP
ffc0
0000
0000
0000
78c0
8500
8200
8000
4000
4000
2000
ENDCHAR
STARTCHAR uni0033
ENCODING 150
SWIDTH 1083 0
DWIDTH 13 0
BBX 13 11 0 0
BITMAP
fff8
0000
0000
0000
7860
c490
8108
8208
8308
4498
3870
ENDCHAR
STARTCHAR uni0034
ENCODING 151
SWIDTH 1083 0
DWIDTH 13 0
BBX 13 15 0 -4
BITMAP
fff8
0000
0000
0000
7860
c490
8108
8208
8308
4498
3870
0000
0000
0200
0200
ENDCHAR
STARTCHAR uni0035
ENCODING 152
SWIDTH 500 0
DWIDTH 6 0
BBX 6 8 0 3
BITMAP
fc
00
00
78
84
84
84
78
ENDCHAR
STARTCHAR uni0036
ENCODING 153
SWIDTH 750 0
DWIDTH 9 0
BBX 9 11 0 0
BITMAP
ff80
1400
2200
2200
2200
1e00
2200
5c00
3800
0400
0400
ENDCHAR
STARTCHAR uni0037
ENCODING 154
SWIDTH 500 0
DWIDTH 6 0
BBX 6 8 0 3
BITMAP
fc
60
50
50
48
48
24
1c
ENDCHAR
STARTCHAR uni0038
ENCODING 155
SWIDTH 666 0
DWIDTH 8 0
BBX 8 12 0 -1
BITMAP
ff
10
10
10
b1
fe
40
40
20
20
10
08
ENDCHAR
STARTCHAR uni0039
ENCODING 156
SWIDTH 833 0
DWIDTH 10 0
BBX 10 14 0 -3
BITMAP
ffc0
0200
0200
1e00
2000
1000
1fc0
3000
2000
2000
2000
1000
0800
0600
ENDCHAR
STARTCHAR uni0040
ENCODING 157
SWIDTH 833 0
DWIDTH 10 0
BBX 10 11 0 0
BITMAP
ffc0
0400
7580
8e40
8c40
7480
8f80
8c40
7440
0480
0400
ENDCHAR
STARTCHAR uni0041
ENCODING 158
SWIDTH 1250 0
DWIDTH 15 0
BBX 15 12 0 -1
BITMAP
fffe
0040
0040
0040
ffdc
1062
2042
2042
2042
1044
0840
0400
ENDCHAR
STARTCHAR uni0042
ENCODING 159
SWIDTH 1000 0
DWIDTH 12 0
BBX 12 16 0 -5
BITMAP
fff0
0100
3f00
2000
2020
1e20
8100
8100
4100
3e00
0400
3500
4e80
4c80
3480
0400
ENDCHAR
STARTCHAR uni0043
ENCODING 160
SWIDTH 1000 0
DWIDTH 12 0
BBX 12 16 0 -5
BITMAP
fff0
0100
3f00
2000
2020
1e20
8100
8100
4100
3f00
6100
cd00
9300
5300
4d00
2100
ENDCHAR
STARTCHAR uni0044
ENCODING 161
SWIDTH 1000 0
DWIDTH 12 0
BBX 12 16 0 -5
BITMAP
fff0
0100
3f00
2000
2020
1e20
8100
8100
4100
3f00
1100
1100
3100
3100
1100
0100
ENDCHAR
STARTCHAR uni0045
ENCODING 162
SWIDTH 1000 0
DWIDTH 12 0
BBX 12 16 0 -5
BITMAP
fff0
0200
3e00
2000
2020
1e20
8100
8100
4100
7e00
4200
4200
3a00
2200
1e00
0200
ENDCHAR
STARTCHAR uni0046
ENCODING 163
SWIDTH 1166 0
DWIDTH 14 0
BBX 14 11 0 0
BITMAP
fffc
0040
1840
47c0
2440
1840
0040
47c0
4440
2240
1c40
ENDCHAR
STARTCHAR uni0047
ENCODING 164
SWIDTH 1083 0
DWIDTH 13 0
BBX 13 13 0 -2
BITMAP
fff8
0080
0080
0f80
1000
1000
30c0
50c0
4fc0
2040
1840
10c0
0f40
ENDCHAR
STARTCHAR uni0048
ENCODING 165
SWIDTH 833 0
DWIDTH 10 0
BBX 10 14 0 -3
BITMAP
ffc0
0400
0400
3c00
4000
2000
3c00
4000
4000
4300
3f00
0300
0100
0080
ENDCHAR
STARTCHAR uni0049
ENCODING 166
SWIDTH 1083 0
DWIDTH 13 0
BBX 13 13 0 -2
BITMAP
fff8
0080
0080
0f80
1000
1000
10c0
50c0
4fc0
4040
3860
1080
0f00
ENDCHAR
STARTCHAR uni004A
ENCODING 167
SWIDTH 833 0
DWIDTH 10 0
BBX 10 14 0 -3
BITMAP
ffc0
0400
0400
7c00
8000
8000
8600
8600
7e00
1e00
3300
2a80
2600
1c00
ENDCHAR
STARTCHAR uni004B
ENCODING 168
SWIDTH 1083 0
DWIDTH 13 0
BBX 13 13 0 -2
BITMAP
fff8
0080
0080
0f80
1000
1000
1180
9180
4f80
4080
4080
ff80
c080
ENDCHAR
STARTCHAR uni004C
ENCODING 169
SWIDTH 1166 0
DWIDTH 14 0
BBX 14 12 0 -1
BITMAP
fffc
0440
0440
7c40
8040
8040
8c40
8c40
7c40
0440
0fc0
0c40
ENDCHAR
STARTCHAR uni004D
ENCODING 170
SWIDTH 1250 0
DWIDTH 15 0
BBX 15 12 0 -1
BITMAP
fffe
0220
0220
3e20
4020
4020
4620
4620
3e20
0420
0260
01c0
ENDCHAR
STARTCHAR uni004E
ENCODING 171
SWIDTH 833 0
DWIDTH 10 0
BBX 10 14 0 -3
BITMAP
ffc0
0400
0400
7c00
8000
8000
8600
8600
7e00
1e00
2300
2280
2200
1c00
ENDCHAR
STARTCHAR uni004F
ENCODING 172
SWIDTH 916 0
DWIDTH 11 0
BBX 11 17 0 -6
BITMAP
ffe0
0200
0200
7e00
c000
8000
8080
c180
7f00
0200
0200
7e00
c000
8000
8080
c180
7f00
ENDCHAR
STARTCHAR uni0050
ENCODING 173
SWIDTH 916 0
DWIDTH 11 0
BBX 11 17 0 -6
BITMAP
ffe0
0200
0200
7e00
c000
8000
8100
c300
7e00
0200
3e00
6200
c100
8100
8100
4300
3e00
ENDCHAR
STARTCHAR uni0051
ENCODING 174
SWIDTH 916 0
DWIDTH 11 0
BBX 11 16 0 -5
BITMAP
ffe0
0200
0200
3e00
6100
c100
8100
8300
7e00
0200
3e00
6100
c100
8100
8300
7e00
ENDCHAR
STARTCHAR uni0052
ENCODING 175
SWIDTH 1000 0
DWIDTH 12 0
BBX 12 16 0 -5
BITMAP
fff0
0100
3f00
2000
2000
1e00
8100
8100
4100
3f00
1100
1100
3100
3100
1100
0100
ENDCHAR
STARTCHAR uni0053
ENCODING 176
SWIDTH 1000 0
DWIDTH 12 0
BBX 12 18 0 -7
BITMAP
fff0
0100
0100
3f00
2000
3c00
8600
8200
4600
3e00
0200
3e00
2000
3c00
8600
8200
4600
3c00
ENDCHAR
STARTCHAR uni0054
ENCODING 177
SWIDTH 1000 0
DWIDTH 12 0
BBX 12 18 0 -7
BITMAP
fff0
0100
0100
3f00
2000
3c00
8600
8200
4600
3e00
0200
3e00
4000
8000
9c00
a200
6200
3c00
ENDCHAR
STARTCHAR uni0055
ENCODING 178
SWIDTH 1083 0
DWIDTH 13 0
BBX 13 11 0 0
BITMAP
fff8
0080
0080
7880
6480
2380
0e80
3880
3080
1080
0080
ENDCHAR
STARTCHAR uni0056
ENCODING 179
SWIDTH 1333 0
DWIDTH 16 0
BBX 16 15 0 -4
BITMAP
ffff
0210
0210
3e10
4010
2010
3c10
6210
4110
43f0
4310
2010
1000
0c00
0300
ENDCHAR
STARTCHAR uni0057
ENCODING 180
SWIDTH 1333 0
DWIDTH 16 0
BBX 16 15 0 -4
BITMAP
ffff
0210
0210
3e10
4010
2010
3c10
6210
4110
4130
4250
2190
1000
0c00
0300
ENDCHAR
STARTCHAR uni0058
ENCODING 181
SWIDTH 1583 0
DWIDTH 19 0
BBX 19 15 0 -4
BITMAP
ffffe0
000200
000200
003e00
004000
002000
003c00
006200
004100
3bc100
464200
422000
401000
200c00
180300
ENDCHAR
STARTCHAR uni0059
ENCODING 182
SWIDTH 1333 0
DWIDTH 16 0
BBX 16 15 0 -4
BITMAP
ffff
0010
0010
01f0
0200
0100
01e0
0310
0208
0208
3e10
6300
4280
4660
3c18
ENDCHAR
STARTCHAR uni005A
ENCODING 183
SWIDTH 1416 0
DWIDTH 17 0
BBX 17 11 0 0
BITMAP
ffff80
100800
100800
10e800
b01800
fe1800
402800
404800
208800
100800
080800
ENDCHAR
STARTCHAR uni0070
ENCODING 184
SWIDTH 750 0
DWIDTH 9 0
BBX 9 13 0 -2
BITMAP
3180
6800
4400
4c80
2980
7e00
c000
8000
8400
8e00
7e00
0400
0200
ENDCHAR
STARTCHAR uni0071
ENCODING 185
SWIDTH 1000 0
DWIDTH 12 0
BBX 12 11 0 0
BITMAP
fff0
0100
0100
7f00
3100
0900
0500
6500
7900
1100
0900
ENDCHAR
STARTCHAR uni0072
ENCODING 186
SWIDTH 750 0
DWIDTH 9 0
BBX 9 11 0 0
BITMAP
ff80
0000
0000
0000
ff80
1000
2000
2000
2000
1000
0800
ENDCHAR
STARTCHAR uni0073
ENCODING 187
SWIDTH 500 0
DWIDTH 6 0
BBX 6 9 0 2
BITMAP
fc
00
00
78
84
04
08
30
40
ENDCHAR
STARTCHAR uni0074
ENCODING 188
SWIDTH 750 0
DWIDTH 9 0
BBX 9 12 0 -1
BITMAP
ff80
1800
2400
2400
1800
6700
0080
7c00
1880
1080
1100
0e00
ENDCHAR
STARTCHAR uni0075
ENCODING 189
SWIDTH 750 0
DWIDTH 9 0
BBX 9 10 0 1
BITMAP
ff80
1800
2400
2400
1800
6700
0080
0180
0200
0400
ENDCHAR
STARTCHAR uni0076
ENCODING 190
SWIDTH 750 0
DWIDTH 9 0
BBX 9 10 0 1
BITMAP
ff80
1800
2400
2400
1800
6700
0880
0880
0880
0700
ENDCHAR
STARTCHAR uni007B
ENCODING 191
SWIDTH 0 0
DWIDTH 0 0
BBX 4 7 -7 10
BITMAP
60
90
a0
a0
80
40
20
ENDCHAR
STARTCHAR uni007C
ENCODING 192
SWIDTH 916 0
DWIDTH 11 0
BBX 11 15 0 -4
BITMAP
ffe0
0200
0200
3e00
4000
2000
3c00
6200
4500
4900
4200
2000
1000
0c00
0300
ENDCHAR
STARTCHAR uni007D
ENCODING 193
SWIDTH 666 0
DWIDTH 8 0
BBX 8 7 0 4
BITMAP
ff
00
00
00
00
43
3c
ENDCHAR
STARTCHAR uni007E
ENCODING 194
SWIDTH 0 0
DWIDTH 0 0
BBX 4 7 -7 10
BITMAP
60
90
80
80
80
40
20
ENDCHAR
STARTCHAR uni007F
ENCODING 195
SWIDTH 0 0
DWIDTH 0 0
BBX 5 5 -8 -5
BITMAP
10
30
68
c0
80
ENDCHAR
STARTCHAR uni0080
ENCODING 196
SWIDTH 333 0
DWIDTH 4 0
BBX 6 15 -1 0
BITMAP
b4
44
38
00
78
20
20
20
20
20
20
20
20
20
20
ENDCHAR
STARTCHAR uni0081
ENCODING 197
SWIDTH 333 0
DWIDTH 4 0
BBX 4 14 0 0
BITMAP
60
00
00
f0
40
40
40
40
40
40
40
40
40
40
ENDCHAR
STARTCHAR uni0082
ENCODING 198
SWIDTH 333 0
DWIDTH 4 0
BBX 4 17 0 0
BITMAP
60
90
80
80
80
40
f0
40
40
40
40
40
40
40
40
40
40
ENDCHAR
STARTCHAR uni0083
ENCODING 199
SWIDTH 333 0
DWIDTH 4 0
BBX 4 17 0 0
BITMAP
60
90
a0
a0
80
40
f0
40
40
40
40
40
40
40
40
40
40
ENDCHAR
STARTCHAR uni0084
ENCODING 200
SWIDTH 333 0
DWIDTH 4 0
BBX 9 18 0 0
BITMAP
0080
0080
3c00
4300
4080
4000
4000
f000
4000
4000
4000
4000
4000
4000
4000
4000
4000
4000
ENDCHAR
STARTCHAR uni0085
ENCODING 201
SWIDTH 333 0
DWIDTH 4 0
BBX 12 17 0 0
BITMAP
0070
3c80
4380
4080
4000
4000
f000
4000
4000
4000
4000
4000
4000
4000
4000
4000
4000
ENDCHAR
STARTCHAR uni0086
ENCODING 202
SWIDTH 333 0
DWIDTH 4 0
BBX 12 17 0 0
BITMAP
0070
3c80
43a0
40a0
4000
4000
f000
4000
4000
4000
4000
4000
4000
4000
4000
4000
4000
ENDCHAR
STARTCHAR uni0087
ENCODING 203
SWIDTH 333 0
DWIDTH 4 0
BBX 9 16 -5 0
BITMAP
7000
8880
8480
8200
0200
0780
0200
0200
0200
0200
0200
0200
0200
0200
0200
0200
ENDCHAR
STARTCHAR uni0088
ENCODING 204
SWIDTH 333 0
DWIDTH 4 0
BBX 10 16 -5 0
BITMAP
7180
8a40
8600
8200
0200
0780
0200
0200
0200
0200
0200
0200
0200
0200
0200
0200
ENDCHAR
STARTCHAR uni0089
ENCODING 205
SWIDTH 333 0
DWIDTH 4 0
BBX 10 16 -5 0
BITMAP
7180
8a40
8680
8280
0200
0780
0200
0200
0200
0200
0200
0200
0200
0200
0200
0200
ENDCHAR
STARTCHAR uni008A
ENCODING 206
SWIDTH 0 0
DWIDTH 0 0
BBX 6 4 -8 13
BITMAP
10
94
44
38
ENDCHAR
STARTCHAR uni008B
ENCODING 207
SWIDTH 0 0
DWIDTH 0 0
BBX 7 6 -11 11
BITMAP
02
e2
10
08
04
02
ENDCHAR
STARTCHAR uni008C
ENCODING 208
SWIDTH 833 0
DWIDTH 10 0
BBX 10 5 -11 11
BITMAP
e180
1240
0a00
0600
0200
ENDCHAR
STARTCHAR uni008D
ENCODING 209
SWIDTH 833 0
DWIDTH 10 0
BBX 10 5 -11 11
BITMAP
e180
1240
0a80
0680
0200
ENDCHAR
STARTCHAR uni008E
ENCODING 210
SWIDTH 0 0
DWIDTH 0 0
BBX 8 6 -12 11
BITMAP
31
19
e4
7a
06
01
ENDCHAR
STARTCHAR uni008F
ENCODING 211
SWIDTH 1083 0
DWIDTH 13 0
BBX 13 6 -12 11
BITMAP
3000
1830
e448
7a40
0640
0140
ENDCHAR
STARTCHAR uni0090
ENCODING 212
SWIDTH 1083 0
DWIDTH 13 0
BBX 13 6 -12 11
BITMAP
3000
1830
e448
7a50
0650
0140
ENDCHAR
STARTCHAR uni0091
ENCODING 213
SWIDTH 333 0
DWIDTH 4 0
BBX 9 17 -5 0
BITMAP
0200
e200
1000
0800
0400
0200
0780
0200
0200
0200
0200
0200
0200
0200
0200
0200
0200
ENDCHAR
STARTCHAR uni0092
ENCODING 214
SWIDTH 333 0
DWIDTH 4 0
BBX 10 16 -5 0
BITMAP
e180
1240
0a00
0600
0200
0780
0200
0200
0200
0200
0200
0200
0200
0200
0200
0200
ENDCHAR
STARTCHAR uni0093
ENCODING 215
SWIDTH 333 0
DWIDTH 4 0
BBX 10 16 -5 0
BITMAP
e180
1240
0a80
0680
0200
0780
0200
0200
0200
0200
0200
0200
0200
0200
0200
0200
ENDCHAR
STARTCHAR uni0094
ENCODING 216
SWIDTH 333 0
DWIDTH 4 0
BBX 10 17 -6 0
BITMAP
3100
1900
e400
7a00
0600
0100
03c0
0100
0100
0100
0100
0100
0100
0100
0100
0100
0100
ENDCHAR
STARTCHAR uni0095
ENCODING 217
SWIDTH 333 0
DWIDTH 4 0
BBX 11 17 -6 0
BITMAP
3000
18c0
e520
7b00
0700
0100
03c0
0100
0100
0100
0100
0100
0100
0100
0100
0100
0100
ENDCHAR
STARTCHAR C332
ENCODING 218
SWIDTH 333 0
DWIDTH 4 0
BBX 11 17 -6 0
BITMAP
3000
18c0
e520
7b40
0740
0100
03c0
0100
0100
0100
0100
0100
0100
0100
0100
0100
0100
ENDCHAR
STARTCHAR C333
ENCODING 219
SWIDTH 0 0
DWIDTH 0 0
BBX 4 4 -9 -2
BITMAP
10
20
40
80
ENDCHAR
STARTCHAR C334
ENCODING 220
SWIDTH 1583 0
DWIDTH 19 0
BBX 0 0 0 0
BITMAP
ENDCHAR
ENDFONT
